# xmcd
# 
# Track frame offsets:
#     150
#     28012
#     42110
#     58235
#     72925
#     89052
#     115959
#     139052
#     157967
#     172714
#     187597
#     208119
#     228254
# 
# Disc length: 3324
# 
# Revision: 0
# Processed by: cddbd v1.5.2PL0 Copyright (c) Steve Scherf et al.
# Submitted via: fre:ac v1.0.17
# 
DISCID=aa0cfa0d
DTITLE=William Clarke - The Hard Way
DYEAR=0
DGENRE=Blues
TTITLE0=the boss
TTITLE1=five card hand
TTITLE2=fishing blues
TTITLE3=evil
TTITLE4=letter from home
TTITLE5=my mind is working overtime
TTITLE6=last monday morning
TTITLE7=moten swing
TTITLE8=blues is killing me
TTITLE9=don't treat me wrong
TTITLE10=respect me, baby
TTITLE11=other side of town
TTITLE12=walkin'
EXTD=
EXTT0=
EXTT1=
EXTT2=
EXTT3=
EXTT4=
EXTT5=
EXTT6=
EXTT7=
EXTT8=
EXTT9=
EXTT10=
EXTT11=
EXTT12=
PLAYORDER=
